<?xml version="1.0" encoding="utf-8" ?><svg xmlns="http://www.w3.org/2000/svg" xmlns:xlink="http://www.w3.org/1999/xlink" width="894" height="894" viewBox="0 0 894 894" xmlns:c2pa="http://c2pa.org/manifest"><metadata><c2pa:manifest>AAAk4Wp1bWIAAAAeanVtZGMycGEAEQAQgAAAqgA4m3EDYzJwYQAAAA6CanVtYgAAAEdqdW1kYzJtYQARABCAAACqADibcQN1cm46YzJwYTo4OTk3MDYwMC03YmEzLTQ3YjQtOWRlYi0yNzExNzY2NGI2NWIAAAADs2p1bWIAAAApanVtZGMyYXMAEQAQgAAAqgA4m3EDYzJwYS5hc3NlcnRpb25zAAAAAMlqdW1iAAAARGp1bWRjYm9yABEAEIAAAKoAOJtxE2MycGEuaW5ncmVkaWVudC52MwAAAAAYYzJzaB6RvN0YhM6Fcr6ZKc83Gd8AAAB9Y2JvcqRscmVsYXRpb25zaGlwaHBhcmVudE9maGRjOnRpdGxlZnNvdXJjZWlkYzpmb3JtYXRqaW1hZ2Uvd2VicGppbnN0YW5jZUlEeCx4bXA6aWlkOmZhNzYxNWQ5LTc1NDgtNDAxNy04NmU3LWM4ODRjM2JiN2Y5MgAAAfVqdW1iAAAAQWp1bWRjYm9yABEAEIAAAKoAOJtxE2MycGEuYWN0aW9ucy52MgAAAAAYYzJzaLqNLq/6O6f9I49qIz9CqxcAAAGsY2JvcqFnYWN0aW9uc4KiZmFjdGlvbmtjMnBhLm9wZW5lZGpwYXJhbWV0ZXJzoWtpbmdyZWRpZW50c4GiY3VybHgtc2VsZiNqdW1iZj1jMnBhLmFzc2VydGlvbnMvYzJwYS5pbmdyZWRpZW50LnYzZGhhc2hYIJdFelBKiiLnEdB3xifXtNDNy9LxMmPVkTvmwRwulOfspGZhY3Rpb25rYzJwYS5lZGl0ZWRqcGFyYW1ldGVyc6FraW5ncmVkaWVudHOBomN1cmx4LXNlbGYjanVtYmY9YzJwYS5hc3NlcnRpb25zL2MycGEuaW5ncmVkaWVudC52M2RoYXNoWCCXRXpQSooi5xHQd8Yn17TQzcvS8TJj1ZE75sEcLpTn7HFkaWdpdGFsU291cmNlVHlwZXhTaHR0cDovL2N2LmlwdGMub3JnL25ld3Njb2Rlcy9kaWdpdGFsc291cmNldHlwZS9jb21wb3NpdGVXaXRoVHJhaW5lZEFsZ29yaXRobWljTWVkaWFrZGVzY3JpcHRpb252Q3JlYXRlZCBieSBSZWNyYWZ0IEFJLgAAAMRqdW1iAAAAQGp1bWRjYm9yABEAEIAAAKoAOJtxE2MycGEuaGFzaC5kYXRhAAAAABhjMnNoeexxPcHa000GS85N+IJdYgAAAHxjYm9ypWpleGNsdXNpb25zgaJlc3RhcnQY2WZsZW5ndGgZE4xkbmFtZW5qdW1iZiBtYW5pZmVzdGNhbGdmc2hhMjU2ZGhhc2hYILmA42iae/KKq5tc+0KidgF5BC+JjBB15vmkhZ/GyEZUY3BhZEkAAAAAAAAAAAAAAAKkanVtYgAAACdqdW1kYzJjbAARABCAAACqADibcQNjMnBhLmNsYWltLnYyAAAAAnVjYm9yp2ppbnN0YW5jZUlEeCx4bXA6aWlkOmNjMjAyMTVkLTcyMWUtNGZmYi1hM2Q2LWQxMDAwZjM3YzMwNXRjbGFpbV9nZW5lcmF0b3JfaW5mb6NkbmFtZWpyZWNyYWZ0LmFpZ3ZlcnNpb254KDgxY2U4MmUyYzVjM2NiZmJlOGM2ZmJlMTc5ZDVmOGQ5MWM0MDljZTF3b3JnLmNvbnRlbnRhdXRoLmMycGFfcnNmMC45MC43aXNpZ25hdHVyZXhNc2VsZiNqdW1iZj0vYzJwYS91cm46YzJwYTo4OTk3MDYwMC03YmEzLTQ3YjQtOWRlYi0yNzExNzY2NGI2NWIvYzJwYS5zaWduYXR1cmVyY3JlYXRlZF9hc3NlcnRpb25zgqJjdXJseCpzZWxmI2p1bWJmPWMycGEuYXNzZXJ0aW9ucy9jMnBhLmFjdGlvbnMudjJkaGFzaFggZHQsByvJEr5ZwcAz0VZrlLz7BJGRlc70i3lypJ800v+iY3VybHgpc2VsZiNqdW1iZj1jMnBhLmFzc2VydGlvbnMvYzJwYS5oYXNoLmRhdGFkaGFzaFggUR41a8ePEEjPkjQl/+K10cVQClxsGLr8cUuJgHSZnSVzZ2F0aGVyZWRfYXNzZXJ0aW9uc4GiY3VybHgtc2VsZiNqdW1iZj1jMnBhLmFzc2VydGlvbnMvYzJwYS5pbmdyZWRpZW50LnYzZGhhc2hYIJdFelBKiiLnEdB3xifXtNDNy9LxMmPVkTvmwRwulOfsaGRjOnRpdGxleBpSZWNyYWZ0IEFJIEdlbmVyYXRlZCBJbWFnZWNhbGdmc2hhMjU2AAAH3Gp1bWIAAAAoanVtZGMyY3MAEQAQgAAAqgA4m3EDYzJwYS5zaWduYXR1cmUAAAAHrGNib3LShFkDsKIBJhghglkB5zCCAeMwggGJoAMCAQICCQC33lpjQ1FuejAKBggqhkjOPQQDAjBAMR8wHQYDVQQDDBZSZWNyYWZ0IFN0YWdpbmcgRGV2IENBMRAwDgYDVQQKDAdSZWNyYWZ0MQswCQYDVQQGEwJVUzAeFw0yNjA2MTIxOTQzNTBaFw0yNzA2MTIxOTQzNTBaMDcxCzAJBgNVBAYTAlVTMRMwEQYDVQQKEwpSZWNyYWZ0IEFJMRMwEQYDVQQDEwpyZWNyYWZ0LmFpMFkwEwYHKoZIzj0CAQYIKoZIzj0DAQcDQgAESmk1WwArIPw3hty3jsWHSA/1QOhBRu9xOjpJ2/iiIghScoEVM+Lnjds/7dqmG+giFL0vEb4DoogpX6KrGLcPNaN1MHMwDAYDVR0TAQH/BAIwADAOBgNVHQ8BAf8EBAMCBsAwEwYDVR0lBAwwCgYIKwYBBQUHAwQwHQYDVR0OBBYEFC8x6QXp/eki9cuCDx2vDJDLIV39MB8GA1UdIwQYMBaAFAILKjgayqqXSv/5v5MWaO2UeHm3MAoGCCqGSM49BAMCA0gAMEUCIFPISltGl775PEkIFRTZGsevWJvWnvBrE9kWU0MPgedQAiEAtA+AZBKEQ+DdK9mUZDctB2Wlt1iAsv0GRjfeYpReMsxZAb0wggG5MIIBX6ADAgECAgkAnPloO0+gE28wCgYIKoZIzj0EAwIwQDEfMB0GA1UEAwwWUmVjcmFmdCBTdGFnaW5nIERldiBDQTEQMA4GA1UECgwHUmVjcmFmdDELMAkGA1UEBhMCVVMwHhcNMjYwNjEyMTk0MDE2WhcNMjgwNjExMTk0MDE2WjBAMR8wHQYDVQQDDBZSZWNyYWZ0IFN0YWdpbmcgRGV2IENBMRAwDgYDVQQKDAdSZWNyYWZ0MQswCQYDVQQGEwJVUzBZMBMGByqGSM49AgEGCCqGSM49AwEHA0IABEPSEAZXFWymij2K0EnzoS/9NLO8VAwu0YpyLizvyNZPfcvcoeqFhfZD8Wj/rcdb9T3ji98q1arie99B9GRog8qjQjBAMA8GA1UdEwEB/wQFMAMBAf8wDgYDVR0PAQH/BAQDAgGGMB0GA1UdDgQWBBQCCyo4Gsqql0r/+b+TFmjtlHh5tzAKBggqhkjOPQQDAgNIADBFAiBUMDSJi5WA3kIY4BfmYqk24HLs0qpjicN0NpUP4bvNxQIhAPTvHC5v8X6FS6geI7XW7h84t1i/qdkTfg0RpMKWLMFboWNwYWRZA6QAAAAAAAAAAAAAAAAAAAAAAAAAAAAAAAAAAAAAAAAAAAAAAAAAAAAAAAAAAAAAAAAAAAAAAAAAAAAAAAAAAAAAAAAAAAAAAAAAAAAAAAAAAAAAAAAAAAAAAAAAAAAAAAAAAAAAAAAAAAAAAAAAAAAAAAAAAAAAAAAAAAAAAAAAAAAAAAAAAAAAAAAAAAAAAAAAAAAAAAAAAAAAAAAAAAAAAAAAAAAAAAAAAAAAAAAAAAAAAAAAAAAAAAAAAAAAAAAAAAAAAAAAAAAAAAAAAAAAAAAAAAAAAAAAAAAAAAAAAAAAAAAAAAAAAAAAAAAAAAAAAAAAAAAAAAAAAAAAAAAAAAAAAAAAAAAAAAAAAAAAAAAAAAAAAAAAAAAAAAAAAAAAAAAAAAAAAAAAAAAAAAAAAAAAAAAAAAAAAAAAAAAAAAAAAAAAAAAAAAAAAAAAAAAAAAAAAAAAAAAAAAAAAAAAAAAAAAAAAAAAAAAAAAAAAAAAAAAAAAAAAAAAAAAAAAAAAAAAAAAAAAAAAAAAAAAAAAAAAAAAAAAAAAAAAAAAAAAAAAAAAAAAAAAAAAAAAAAAAAAAAAAAAAAAAAAAAAAAAAAAAAAAAAAAAAAAAAAAAAAAAAAAAAAAAAAAAAAAAAAAAAAAAAAAAAAAAAAAAAAAAAAAAAAAAAAAAAAAAAAAAAAAAAAAAAAAAAAAAAAAAAAAAAAAAAAAAAAAAAAAAAAAAAAAAAAAAAAAAAAAAAAAAAAAAAAAAAAAAAAAAAAAAAAAAAAAAAAAAAAAAAAAAAAAAAAAAAAAAAAAAAAAAAAAAAAAAAAAAAAAAAAAAAAAAAAAAAAAAAAAAAAAAAAAAAAAAAAAAAAAAAAAAAAAAAAAAAAAAAAAAAAAAAAAAAAAAAAAAAAAAAAAAAAAAAAAAAAAAAAAAAAAAAAAAAAAAAAAAAAAAAAAAAAAAAAAAAAAAAAAAAAAAAAAAAAAAAAAAAAAAAAAAAAAAAAAAAAAAAAAAAAAAAAAAAAAAAAAAAAAAAAAAAAAAAAAAAAAAAAAAAAAAAAAAAAAAAAAAAAAAAAAAAAAAAAAAAAAAAAAAAAAAAAAAAAAAAAAAAAAAAAAAAAAAAAAAAAAAAAAAAAAAAAAAAAAAAAAAAAAAAAAAAAAAAAAAAAAAAAAAAAAAAAAAAAAAAAAAAAAAAAAAAAAAAAAAAAAAAAAAAAAAAAAAAAAAAAAAAAAAAAAAAAAAAAAAAAAAAAAAPZYQNIPURB7FC2YNeHLu7tQQT6UoQxAxiEJdl48+oS6AunHKyIXjGhnzkJnia0kKTm7PzS+TCV+agQBye6aSoO8aAQAABY5anVtYgAAAEdqdW1kYzJtYQARABCAAACqADibcQN1cm46YzJwYTo1MWViZTRkMC0wZmIzLTQyNzctODU0ZC1mMzRiMDAzM2FmZjYAAAALeGp1bWIAAAApanVtZGMyYXMAEQAQgAAAqgA4m3EDYzJwYS5hc3NlcnRpb25zAAAACJVqdW1iAAAARGp1bWRjYm9yABEAEIAAAKoAOJtxE2MycGEuaW5ncmVkaWVudC52MwAAAAAYYzJzaJJprElIh7V5mCcTm4xCYQkAAAhJY2JvcqdscmVsYXRpb25zaGlwaHBhcmVudE9maGRjOnRpdGxlZnNvdXJjZWlkYzpmb3JtYXRtaW1hZ2Uvc3ZnK3htbHF2YWxpZGF0aW9uUmVzdWx0c6JuYWN0aXZlTWFuaWZlc3SjZ3N1Y2Nlc3OGo2Rjb2RleB1jbGFpbVNpZ25hdHVyZS5pbnNpZGVWYWxpZGl0eWN1cmx4TXNlbGYjanVtYmY9L2MycGEvdXJuOmMycGE6ODk5NzA2MDAtN2JhMy00N2I0LTlkZWItMjcxMTc2NjRiNjViL2MycGEuc2lnbmF0dXJla2V4cGxhbmF0aW9udWNsYWltIHNpZ25hdHVyZSB2YWxpZKNkY29kZXgYY2xhaW1TaWduYXR1cmUudmFsaWRhdGVkY3VybHhNc2VsZiNqdW1iZj0vYzJwYS91cm46YzJwYTo4OTk3MDYwMC03YmEzLTQ3YjQtOWRlYi0yNzExNzY2NGI2NWIvYzJwYS5zaWduYXR1cmVrZXhwbGFuYXRpb251Y2xhaW0gc2lnbmF0dXJlIHZhbGlko2Rjb2RleBlhc3NlcnRpb24uaGFzaGVkVVJJLm1hdGNoY3VybHhec2VsZiNqdW1iZj0vYzJwYS91cm46YzJwYTo4OTk3MDYwMC03YmEzLTQ3YjQtOWRlYi0yNzExNzY2NGI2NWIvYzJwYS5hc3NlcnRpb25zL2MycGEuYWN0aW9ucy52MmtleHBsYW5hdGlvbng+aGFzaGVkIHVyaSBtYXRjaGVkOiBzZWxmI2p1bWJmPWMycGEuYXNzZXJ0aW9ucy9jMnBhLmFjdGlvbnMudjKjZGNvZGV4GWFzc2VydGlvbi5oYXNoZWRVUkkubWF0Y2hjdXJseF1zZWxmI2p1bWJmPS9jMnBhL3VybjpjMnBhOjg5OTcwNjAwLTdiYTMtNDdiNC05ZGViLTI3MTE3NjY0YjY1Yi9jMnBhLmFzc2VydGlvbnMvYzJwYS5oYXNoLmRhdGFrZXhwbGFuYXRpb254PWhhc2hlZCB1cmkgbWF0Y2hlZDogc2VsZiNqdW1iZj1jMnBhLmFzc2VydGlvbnMvYzJwYS5oYXNoLmRhdGGjZGNvZGV4GWFzc2VydGlvbi5oYXNoZWRVUkkubWF0Y2hjdXJseGFzZWxmI2p1bWJmPS9jMnBhL3VybjpjMnBhOjg5OTcwNjAwLTdiYTMtNDdiNC05ZGViLTI3MTE3NjY0YjY1Yi9jMnBhLmFzc2VydGlvbnMvYzJwYS5pbmdyZWRpZW50LnYza2V4cGxhbmF0aW9ueEFoYXNoZWQgdXJpIG1hdGNoZWQ6IHNlbGYjanVtYmY9YzJwYS5hc3NlcnRpb25zL2MycGEuaW5ncmVkaWVudC52M6NkY29kZXgYYXNzZXJ0aW9uLmRhdGFIYXNoLm1hdGNoY3VybHhdc2VsZiNqdW1iZj0vYzJwYS91cm46YzJwYTo4OTk3MDYwMC03YmEzLTQ3YjQtOWRlYi0yNzExNzY2NGI2NWIvYzJwYS5hc3NlcnRpb25zL2MycGEuaGFzaC5kYXRha2V4cGxhbmF0aW9ub2RhdGEgaGFzaCB2YWxpZG1pbmZvcm1hdGlvbmFsgGdmYWlsdXJlgaNkY29kZXgbc2lnbmluZ0NyZWRlbnRpYWwudW50cnVzdGVkY3VybHhNc2VsZiNqdW1iZj0vYzJwYS91cm46YzJwYTo4OTk3MDYwMC03YmEzLTQ3YjQtOWRlYi0yNzExNzY2NGI2NWIvYzJwYS5zaWduYXR1cmVrZXhwbGFuYXRpb254HXNpZ25pbmcgY2VydGlmaWNhdGUgdW50cnVzdGVkcGluZ3JlZGllbnREZWx0YXOBonZpbmdyZWRpZW50QXNzZXJ0aW9uVVJJeGFzZWxmI2p1bWJmPS9jMnBhL3VybjpjMnBhOjg5OTcwNjAwLTdiYTMtNDdiNC05ZGViLTI3MTE3NjY0YjY1Yi9jMnBhLmFzc2VydGlvbnMvYzJwYS5pbmdyZWRpZW50LnYzcHZhbGlkYXRpb25EZWx0YXOjZ3N1Y2Nlc3OAbWluZm9ybWF0aW9uYWyBo2Rjb2RleBxpbmdyZWRpZW50LnVua25vd25Qcm92ZW5hbmNlY3VybHhhc2VsZiNqdW1iZj0vYzJwYS91cm46YzJwYTo4OTk3MDYwMC03YmEzLTQ3YjQtOWRlYi0yNzExNzY2NGI2NWIvYzJwYS5hc3NlcnRpb25zL2MycGEuaW5ncmVkaWVudC52M2tleHBsYW5hdGlvbngrc291cmNlOiBpbmdyZWRpZW50IGRvZXMgbm90IGhhdmUgcHJvdmVuYW5jZWdmYWlsdXJlgGppbnN0YW5jZUlEeCx4bXA6aWlkOjcwMDMzODY2LTMwZGItNDk5My1iMDk5LTg1YTg4NDNiNGMwZW5hY3RpdmVNYW5pZmVzdKNjdXJseD5zZWxmI2p1bWJmPS9jMnBhL3VybjpjMnBhOjg5OTcwNjAwLTdiYTMtNDdiNC05ZGViLTI3MTE3NjY0YjY1YmNhbGdmc2hhMjU2ZGhhc2hYIFID7eafE0w9pzSG/zsNgJL9MJhgC1RMZs3INfS2aBpZbmNsYWltU2lnbmF0dXJlo2N1cmx4TXNlbGYjanVtYmY9L2MycGEvdXJuOmMycGE6ODk5NzA2MDAtN2JhMy00N2I0LTlkZWItMjcxMTc2NjRiNjViL2MycGEuc2lnbmF0dXJlY2FsZ2ZzaGEyNTZkaGFzaFggXj7oeAyqLWBsUWta6kIR2SThtnNFhswkAlZJhq9rl5gAAAHuanVtYgAAAEFqdW1kY2JvcgARABCAAACqADibcRNjMnBhLmFjdGlvbnMudjIAAAAAGGMyc2hjYuwqCsUE/BXZpZsX29PWAAABpWNib3KhZ2FjdGlvbnOComZhY3Rpb25rYzJwYS5vcGVuZWRqcGFyYW1ldGVyc6FraW5ncmVkaWVudHOBomN1cmx4LXNlbGYjanVtYmY9YzJwYS5hc3NlcnRpb25zL2MycGEuaW5ncmVkaWVudC52M2RoYXNoWCDNJOyr6EB4CqKJ34oPwVXT5ouO5lSb3uETGAgaa9rlPaRmYWN0aW9ubGMycGEuY3JlYXRlZGpwYXJhbWV0ZXJzoWtpbmdyZWRpZW50c4GiY3VybHgtc2VsZiNqdW1iZj1jMnBhLmFzc2VydGlvbnMvYzJwYS5pbmdyZWRpZW50LnYzZGhhc2hYIM0k7KvoQHgKoonfig/BVdPmi47mVJve4RMYCBpr2uU9cWRpZ2l0YWxTb3VyY2VUeXBleEFodHRwOi8vY3YuaXB0Yy5vcmcvbmV3c2NvZGVzL2RpZ2l0YWxzb3VyY2V0eXBlL2NvbXBvc2l0ZVN5bnRoZXRpY2tkZXNjcmlwdGlvbngfQ29tcG9zZWQgaW4gdGhlIFJlY3JhZnQgZWRpdG9yLgAAAMRqdW1iAAAAQGp1bWRjYm9yABEAEIAAAKoAOJtxE2MycGEuaGFzaC5kYXRhAAAAABhjMnNoY6VMWG1VwJCMtnyb8LyN0QAAAHxjYm9ypWpleGNsdXNpb25zgaJlc3RhcnQY6GZsZW5ndGgZMSxkbmFtZW5qdW1iZiBtYW5pZmVzdGNhbGdmc2hhMjU2ZGhhc2hYIId5inyR64lVq9G1rhO4y8kEImf4+9eBjME0tko2CIyfY3BhZEkAAAAAAAAAAAAAAAKWanVtYgAAACdqdW1kYzJjbAARABCAAACqADibcQNjMnBhLmNsYWltLnYyAAAAAmdjYm9yp2ppbnN0YW5jZUlEeCx4bXA6aWlkOjk2MjVjYTAwLTg2MDgtNGI5Mi04ZWU2LWEzZjE1YWYxMTdmOXRjbGFpbV9nZW5lcmF0b3JfaW5mb6NkbmFtZWpyZWNyYWZ0LmFpZ3ZlcnNpb254KDgxY2U4MmUyYzVjM2NiZmJlOGM2ZmJlMTc5ZDVmOGQ5MWM0MDljZTF3b3JnLmNvbnRlbnRhdXRoLmMycGFfcnNmMC45MC43aXNpZ25hdHVyZXhNc2VsZiNqdW1iZj0vYzJwYS91cm46YzJwYTo1MWViZTRkMC0wZmIzLTQyNzctODU0ZC1mMzRiMDAzM2FmZjYvYzJwYS5zaWduYXR1cmVyY3JlYXRlZF9hc3NlcnRpb25zgqJjdXJseCpzZWxmI2p1bWJmPWMycGEuYXNzZXJ0aW9ucy9jMnBhLmFjdGlvbnMudjJkaGFzaFggGsuCIb4aXXU/pX7bsxSn+vx5SBtgrJ9h7gXHpB/WUMCiY3VybHgpc2VsZiNqdW1iZj1jMnBhLmFzc2VydGlvbnMvYzJwYS5oYXNoLmRhdGFkaGFzaFgguDkr+hA6+L216NwDAV7dr5DbX5QEt2ZGLLfyUNv0zYlzZ2F0aGVyZWRfYXNzZXJ0aW9uc4GiY3VybHgtc2VsZiNqdW1iZj1jMnBhLmFzc2VydGlvbnMvYzJwYS5pbmdyZWRpZW50LnYzZGhhc2hYIM0k7KvoQHgKoonfig/BVdPmi47mVJve4RMYCBpr2uU9aGRjOnRpdGxlbVJlY3JhZnQgSW1hZ2VjYWxnZnNoYTI1NgAAB9xqdW1iAAAAKGp1bWRjMmNzABEAEIAAAKoAOJtxA2MycGEuc2lnbmF0dXJlAAAAB6xjYm9y0oRZA7CiASYYIYJZAecwggHjMIIBiaADAgECAgkAt95aY0NRbnowCgYIKoZIzj0EAwIwQDEfMB0GA1UEAwwWUmVjcmFmdCBTdGFnaW5nIERldiBDQTEQMA4GA1UECgwHUmVjcmFmdDELMAkGA1UEBhMCVVMwHhcNMjYwNjEyMTk0MzUwWhcNMjcwNjEyMTk0MzUwWjA3MQswCQYDVQQGEwJVUzETMBEGA1UEChMKUmVjcmFmdCBBSTETMBEGA1UEAxMKcmVjcmFmdC5haTBZMBMGByqGSM49AgEGCCqGSM49AwEHA0IABEppNVsAKyD8N4bct47Fh0gP9UDoQUbvcTo6Sdv4oiIIUnKBFTPi543bP+3aphvoIhS9LxG+A6KIKV+iqxi3DzWjdTBzMAwGA1UdEwEB/wQCMAAwDgYDVR0PAQH/BAQDAgbAMBMGA1UdJQQMMAoGCCsGAQUFBwMEMB0GA1UdDgQWBBQvMekF6f3pIvXLgg8drwyQyyFd/TAfBgNVHSMEGDAWgBQCCyo4Gsqql0r/+b+TFmjtlHh5tzAKBggqhkjOPQQDAgNIADBFAiBTyEpbRpe++TxJCBUU2RrHr1ib1p7waxPZFlNDD4HnUAIhALQPgGQShEPg3SvZlGQ3LQdlpbdYgLL9BkY33mKUXjLMWQG9MIIBuTCCAV+gAwIBAgIJAJz5aDtPoBNvMAoGCCqGSM49BAMCMEAxHzAdBgNVBAMMFlJlY3JhZnQgU3RhZ2luZyBEZXYgQ0ExEDAOBgNVBAoMB1JlY3JhZnQxCzAJBgNVBAYTAlVTMB4XDTI2MDYxMjE5NDAxNloXDTI4MDYxMTE5NDAxNlowQDEfMB0GA1UEAwwWUmVjcmFmdCBTdGFnaW5nIERldiBDQTEQMA4GA1UECgwHUmVjcmFmdDELMAkGA1UEBhMCVVMwWTATBgcqhkjOPQIBBggqhkjOPQMBBwNCAARD0hAGVxVspoo9itBJ86Ev/TSzvFQMLtGKci4s78jWT33L3KHqhYX2Q/Fo/63HW/U944vfKtWq4nvfQfRkaIPKo0IwQDAPBgNVHRMBAf8EBTADAQH/MA4GA1UdDwEB/wQEAwIBhjAdBgNVHQ4EFgQUAgsqOBrKqpdK//m/kxZo7ZR4ebcwCgYIKoZIzj0EAwIDSAAwRQIgVDA0iYuVgN5CGOAX5mKpNuBy7NKqY4nDdDaVD+G7zcUCIQD07xwub/F+hUuoHiO11u4fOLdYv6nZE34NEaTClizBW6FjcGFkWQOkAAAAAAAAAAAAAAAAAAAAAAAAAAAAAAAAAAAAAAAAAAAAAAAAAAAAAAAAAAAAAAAAAAAAAAAAAAAAAAAAAAAAAAAAAAAAAAAAAAAAAAAAAAAAAAAAAAAAAAAAAAAAAAAAAAAAAAAAAAAAAAAAAAAAAAAAAAAAAAAAAAAAAAAAAAAAAAAAAAAAAAAAAAAAAAAAAAAAAAAAAAAAAAAAAAAAAAAAAAAAAAAAAAAAAAAAAAAAAAAAAAAAAAAAAAAAAAAAAAAAAAAAAAAAAAAAAAAAAAAAAAAAAAAAAAAAAAAAAAAAAAAAAAAAAAAAAAAAAAAAAAAAAAAAAAAAAAAAAAAAAAAAAAAAAAAAAAAAAAAAAAAAAAAAAAAAAAAAAAAAAAAAAAAAAAAAAAAAAAAAAAAAAAAAAAAAAAAAAAAAAAAAAAAAAAAAAAAAAAAAAAAAAAAAAAAAAAAAAAAAAAAAAAAAAAAAAAAAAAAAAAAAAAAAAAAAAAAAAAAAAAAAAAAAAAAAAAAAAAAAAAAAAAAAAAAAAAAAAAAAAAAAAAAAAAAAAAAAAAAAAAAAAAAAAAAAAAAAAAAAAAAAAAAAAAAAAAAAAAAAAAAAAAAAAAAAAAAAAAAAAAAAAAAAAAAAAAAAAAAAAAAAAAAAAAAAAAAAAAAAAAAAAAAAAAAAAAAAAAAAAAAAAAAAAAAAAAAAAAAAAAAAAAAAAAAAAAAAAAAAAAAAAAAAAAAAAAAAAAAAAAAAAAAAAAAAAAAAAAAAAAAAAAAAAAAAAAAAAAAAAAAAAAAAAAAAAAAAAAAAAAAAAAAAAAAAAAAAAAAAAAAAAAAAAAAAAAAAAAAAAAAAAAAAAAAAAAAAAAAAAAAAAAAAAAAAAAAAAAAAAAAAAAAAAAAAAAAAAAAAAAAAAAAAAAAAAAAAAAAAAAAAAAAAAAAAAAAAAAAAAAAAAAAAAAAAAAAAAAAAAAAAAAAAAAAAAAAAAAAAAAAAAAAAAAAAAAAAAAAAAAAAAAAAAAAAAAAAAAAAAAAAAAAAAAAAAAAAAAAAAAAAAAAAAAAAAAAAAAAAAAAAAAAAAAAAAAAAAAAAAAAAAAAAAAAAAAAAAAAAAAAAAAAAAAAAAAAAAAAAAAAAAAAAAAAAAAAAAAAAAAAAAAAAAAAAAAAAAAAAAAAAAAAAAAAAAAAAAAAAAAAAAAAAAAAAAAAAAAAAAAAAAAAAAAAAAAAAAAAAAAAAAAAAAAAAAAAAAAAAAAD2WED6MuGSUGM2Pm8F5WIw0MnPxVcqzwDN2ViCtRuOaInbd35Si4WRSOPnJjFPIw2h68wNxOtNrpVhOuDyHZWH/3iZ</c2pa:manifest></metadata><path fill="#FEFEFE" fill-opacity="0.30980393" d="M0 0L726.198 0C730.079 1.7429 731.627 1.44142 735.735 2.04079C743.652 3.19587 751.695 3.6546 759.119 6.8851L759.325 6.60539L759.167 5.97062C776.592 10.5561 795.047 19.7683 810.592 28.9152C814.616 31.283 813.758 33.217 819.456 34.6713C820.406 35.8949 820.429 35.994 821.057 37.3277C822.171 37.7985 823.02 37.6039 824.239 37.5121L824.534 38.1528L824.079 39.032C827.231 41.7102 829.378 44.4073 832.935 45.9995C835.781 47.2732 839.11 52.5409 841.716 54.5495C842.467 55.1988 848.579 60.7937 848.674 61.1999C850.077 67.1895 855.396 67.1402 857.009 73.4051C867.271 80.0481 886.35 124.952 888.93 137.58C889.432 140.041 891.681 149.607 890.986 150.99C887.098 157.766 893.806 160.039 890.645 165.523C888.975 168.421 889.563 171.112 889.826 174.175L890.321 172.839C891.765 174.744 891.198 194.402 891.193 198.433L891.166 242.95L891.173 440.762C891.301 461.596 891.243 482.431 891 503.264C890.898 508.163 891.858 514.593 891.104 519.271C890.172 519.387 890.534 519.41 889.627 519.048C889.983 520.696 891.255 520.486 891.304 522.668C891.363 525.329 891.144 527.955 891.137 530.612L891.158 551.473L891.174 620.838L891.176 685.723C891.177 696.771 891.663 712.92 890.549 723.482L890.336 725.41L890.208 725.129L890.012 727.387C891.177 728.059 890.698 727.854 892.12 727.991C891.93 731.978 888.886 736.063 889.624 739.65C891.008 739.899 890.513 739.538 891.312 740.487L891.437 742.673C890.859 745.034 890.218 747.272 890.106 749.706L889.213 752.402L888.734 752.02C888.606 750.575 888.613 748.662 887.873 747.519C886.693 748.019 887.239 747.728 886.397 749.221C886.605 752.564 886.297 752.528 885.592 755.428C885.372 756.333 886.353 759.449 886.275 760.729L884.976 760.324C883.457 763.054 884.054 767.341 884.333 770.406L883.447 771.442L882.996 769.8L882.478 769.559C879.481 773.551 877.865 780.457 875.646 785.121C868.704 799.8 859.982 813.57 849.677 826.12C847.545 828.769 845.21 831.595 842.954 834.08C840.917 836.324 831.073 844.846 830.737 847.142C831.88 847.51 832.6 847.224 833.784 846.973C830.91 849.082 824.407 854.106 821.902 856.641L821.477 855.431C819.803 855.087 818.587 856.239 817.733 857.566C818.48 858.646 817.985 858.224 819.471 858.579C792.184 878.569 758.783 890.977 725.498 893.089C724.734 893.138 723.944 893.583 723.327 894L0 894L0 0ZM44.7808 46.6084C43.6073 47.5487 42.7938 48.1037 42.8191 49.7638C42.9303 57.06 42.9792 64.4886 42.9829 71.7751L42.9834 125.083L42.9737 375.128C42.9719 415.874 43.473 456.686 42.9866 497.424C42.9494 500.54 42.9043 518.105 41.9557 519.419L40.8232 519.673C41.8054 519.825 41.8382 519.803 42.7317 520.297C43.4029 525.434 42.9976 541.668 42.9965 547.784L42.9831 605.084L42.9721 801.352C42.9728 805.513 42.6549 842.999 43.4158 844.778C44.4792 841.606 43.6511 780.327 43.6509 771.872L43.6139 520.707C45.5291 523.165 42.6484 779.955 43.8712 804.815C44.2494 812.503 42.3397 841.584 44.8238 848.767C45.0262 849.689 45.2763 850.671 45.3928 851.599C45.3965 851.821 45.3689 852.045 45.4038 852.263C45.5045 852.893 45.9406 853.268 46.4308 853.608C48.6169 855.125 174.405 854.338 185.661 854.337L553.656 854.338L654.211 854.329C662.821 854.304 671.432 854.325 680.042 854.393C686.161 854.498 691.052 855.666 696.913 853.75C697.643 853.511 701.886 854.337 703.057 854.238C728.792 852.064 753.858 843.16 775.649 829.37C778.864 827.334 782.975 825.129 786.083 822.803C801.712 810.972 815.239 796.444 826.507 780.364C832.943 771.179 838.388 757.419 843.665 747.269C844.652 745.372 844.987 740.002 845.767 737.58C847.761 731.39 849.939 725.462 850.742 718.967C853.822 701.882 852.904 684.209 852.908 666.878L852.921 595.095L852.916 356.647L852.889 236.992L852.911 207.353C852.938 204.16 853.403 196.638 852.908 193.96L851.508 194.833C850.701 190.485 849.071 172.443 846.739 169.126C847.284 164.025 849.007 168.041 846.483 162.967C845.052 160.09 845.143 149.336 841.732 147.74L841.297 148.886L840.88 148.872C840.568 147.09 840.085 144.181 838.423 143.289L837.788 144.049C837.46 143.598 837.599 143.341 837.413 142.9C826.251 116.432 797.533 82.1891 772.997 69.717L771.319 67.9776C771.157 66.5612 771.161 66.592 770.614 65.2732C766.822 61.6632 762.89 61.1243 758.322 59.0685C756.138 58.0854 754.391 56.1548 751.967 55.1374C740.461 50.3098 729.954 47.4059 717.774 44.8765C713.166 43.9195 708.771 42.3962 703.927 41.729C697.61 40.859 692.06 42.7143 686.227 42.9627C680.145 43.2217 672.921 43.0113 666.74 43.0118L543.532 43.0173C539.283 43.0151 509.961 43.1525 508.552 42.5892C507.761 42.2734 507.25 42.1033 506.384 42.0533C506.088 42.0362 505.791 42.0266 505.494 42.0133L507.838 41.326L507.837 41.0358C503.422 40.042 504.754 40.3173 503.533 42.952C503.521 42.9794 499.39 43.0096 498.945 43.0099L443.562 43.0118L144.774 42.9939C134.261 42.9911 49.1005 42.2633 47.1643 43.6667C46.9239 43.841 46.7247 44.0659 46.5049 44.2655C45.3102 44.4868 45.8556 44.2709 44.9368 45.1024L44.7808 46.6084Z"/><path fill="#FEFEFE" fill-opacity="0.90980393" d="M66.3481 66.1167C113.495 65.3744 162.281 65.9807 209.531 65.9805L479.195 65.9842L608.77 65.9841L657.448 65.9678C668.413 65.9677 679.32 65.8033 690.264 66.6149C697.301 67.1368 702.144 68.5711 708.784 69.6136L708.113 70.1023C710.003 71.8405 722.925 73.7673 725.747 76.3568C723.322 76.2356 718.912 74.6856 716.599 73.7586L715.914 73.9438C719.388 76.0074 728.491 78.6151 733.102 80.4931C745.008 85.2872 756.649 92.2395 766.595 100.348C768.652 102.024 772.464 104.902 774.539 106.542C776.297 107.93 788.077 120.444 788.211 120.445C787.906 119.819 787.64 119.535 787.71 118.813C796.031 126.934 805.206 141.388 810.537 151.689C821.052 172.007 827.215 195.53 827.229 218.435C827.249 252.804 827.214 287.15 827.211 321.504L827.202 528.76L827.2 631.965C827.209 652.873 827.853 673.954 826.004 694.757C824.879 707.417 820.134 717.728 816.571 729.602C815.842 732.032 814.356 733.154 813.576 735.517C801.634 763.754 779.585 787.014 754.44 804.033C748.215 808.246 729.373 817.574 722.448 818.954L722.004 819.539L722.796 820.077C718.649 822.823 694.928 827.397 689.583 827.596C679.521 827.968 667.584 828 657.356 828.001L610.659 828L465.248 827.99L66.3626 827.891C65.4529 815.977 66.0303 797.417 66.0288 785.174L66.0267 705.68L66.0447 455.413L66.0311 194.747L66.0273 111.086C66.0275 97.8158 65.4338 78.8865 66.3481 66.1167ZM105.255 792.151L496.552 792.189L603.022 792.188C626.903 792.186 655.056 793.695 678.018 789.331C704.828 784.236 730.661 769.83 750.095 750.731C770.153 730.132 783.54 705.815 789.045 677.571C792.868 657.958 791.802 634.812 791.798 614.616L791.797 533.408L791.781 347.819C791.78 314.837 791.755 281.813 791.755 248.813C791.755 209.064 777.477 173.125 749.034 145.142C728.997 125.429 700.119 110.845 672.311 106.615C654.623 103.924 627.758 104.792 608.951 104.802L506.502 104.818L105.445 104.798C104.757 113.232 105.112 125.524 105.115 134.285L105.134 186.448L105.13 352.641L105.126 641.259L105.131 737.235C105.054 755.541 105.095 773.846 105.255 792.151Z"/><path fill="#FEFEFE" d="M145.34 144.997C145.72 144.978 146.101 144.966 146.482 144.96C183.833 144.453 222.558 144.962 260 144.962L487.4 144.966L588.818 144.951C607.289 144.948 636.494 143.914 653.811 147.064C678.737 151.625 701.736 163.518 719.865 181.223C744.962 205.861 757.536 237.342 757.705 272.386L757.697 529.077L757.715 598.755C757.725 617.542 758.769 638.923 755.123 657.15C750.169 681.912 738.034 703.452 720.318 721.304C701.932 739.457 678.462 751.591 653.021 756.1C637.849 758.838 610.309 757.925 593.747 757.923L498.085 757.924L145.314 757.945C144.575 745.864 145.025 729.25 145.026 716.838L145.037 642.959L145.041 415.2L145.03 233.419L145.022 176.296C145.022 167.461 144.595 153.445 145.34 144.997ZM277.15 625.426L487.763 625.413L543.277 625.442C571.039 625.47 582.91 627.148 605.81 607.947C627.201 584.974 623.935 565.851 623.937 536.516L623.924 482.761L623.928 390.487C623.932 374.077 623.911 356.72 623.803 340.878C623.491 295.224 583.533 275.035 542.449 277.587C538.907 277.807 533.917 277.59 530.26 277.591L475.625 277.604L277.035 277.599C277.561 314.298 277.128 352.028 277.128 388.791L277.15 625.426Z"/><path fill="#AFECF8" d="M416.326 318.416C421.684 317.803 433.514 318.7 438.748 319.376C474.273 324.097 506.441 342.808 528.109 371.353C549.534 399.708 558.796 435.422 553.851 470.615C548.958 505.541 530.375 537.086 502.2 558.297C472.201 581.057 437.713 589.056 400.58 583.928C385.091 582.183 367.342 574.713 353.787 567.151C350.825 565.499 344.147 562.416 344.1 558.757C346.235 557.782 354.321 556.831 357.15 556.208C465.958 532.224 482.424 386.533 381.513 338.835C375.518 336.002 369.655 334.247 363.407 332.237C378.287 323.436 399.229 319.632 416.326 318.416Z"/><path fill="#FEFEFE" fill-opacity="0.96470588" d="M708.784 69.6136C713.473 70.9571 719.397 72.5218 723.917 74.1806C759.954 87.1052 790.103 112.624 808.803 146.032C817.362 161.42 824.606 181.643 826.788 199.129C828.099 209.632 827.946 222.738 827.95 233.404L827.952 270.227L827.94 394.493L827.946 583.849L827.949 645.483C827.947 668.454 829.318 692.442 822.788 714.673C813.144 747.899 792.872 777.047 765.079 797.652C753.839 806.074 736.535 816.371 722.796 820.077L722.004 819.539L722.448 818.954C729.373 817.574 748.215 808.246 754.44 804.033C779.585 787.014 801.634 763.754 813.576 735.517C814.356 733.154 815.842 732.032 816.571 729.602C820.134 717.728 824.879 707.417 826.004 694.757C827.853 673.954 827.209 652.873 827.2 631.965L827.202 528.76L827.211 321.504C827.214 287.15 827.249 252.804 827.229 218.435C827.215 195.53 821.052 172.007 810.537 151.689C805.206 141.388 796.031 126.934 787.71 118.813C787.64 119.535 787.906 119.819 788.211 120.445C788.077 120.444 776.297 107.93 774.539 106.542C772.464 104.902 768.652 102.024 766.595 100.348C756.649 92.2395 745.008 85.2872 733.102 80.4931C728.491 78.6151 719.388 76.0074 715.914 73.9438L716.599 73.7586C718.912 74.6856 723.322 76.2356 725.747 76.3568C722.925 73.7673 710.003 71.8405 708.113 70.1023L708.784 69.6136Z"/><path fill="#FEFEFE" fill-opacity="0.19607843" d="M851.508 194.833L852.908 193.96C853.403 196.638 852.938 204.16 852.911 207.353L852.889 236.992L852.916 356.647L852.921 595.095L852.908 666.878C852.904 684.209 853.822 701.882 850.742 718.967C849.939 725.462 847.761 731.39 845.767 737.58C844.987 740.002 844.652 745.372 843.665 747.269C838.388 757.419 832.943 771.179 826.507 780.364C815.239 796.444 801.712 810.972 786.083 822.803C782.975 825.129 778.864 827.334 775.649 829.37C753.858 843.16 728.792 852.064 703.057 854.238C701.886 854.337 697.643 853.511 696.913 853.75C691.052 855.666 686.161 854.498 680.042 854.393C671.432 854.325 662.821 854.304 654.211 854.329L553.656 854.338L185.661 854.337C174.405 854.338 48.6169 855.125 46.4308 853.608C45.9406 853.268 45.5045 852.893 45.4038 852.263C45.3689 852.045 45.3965 851.821 45.3928 851.599C50.691 853.93 73.0719 853.126 80.3172 853.124L140.131 853.098L343.992 853.094L589.931 853.102L658.488 853.105C677.477 853.127 696.221 853.787 715.079 850.94C721.022 850.042 725.769 848.464 731.345 847.033C753.173 841.432 773.627 829.506 791.45 815.94C794.701 813.466 792.999 813.657 795.165 811.433C795.584 811.002 799.568 809.506 800.627 807.889C801.327 807.527 801.33 804.629 801.857 804.372C806.023 802.344 806.909 802.322 808.664 797.614C808.865 797.073 812.092 795.243 812.809 794.524C814.069 793.264 813.151 792.793 813.924 791.449C815.588 789.783 817.402 788.653 819.229 786.9L819.35 786.271C820.327 781.547 824.214 779.399 826.688 775.41C839.03 755.519 847.723 734.051 850.824 710.752C852.894 695.201 852.341 678.98 852.338 663.295L852.335 604.24L852.337 402.412L852.346 258.616L852.348 219.838C852.344 214.432 852.425 199.71 851.508 194.833Z"/><path fill="#FEFEFE" fill-opacity="0.23921569" d="M44.8238 848.767C42.3397 841.584 44.2494 812.503 43.8712 804.815C42.6484 779.955 45.5291 523.165 43.6139 520.707L43.6509 771.872C43.6511 780.327 44.4792 841.606 43.4158 844.778C42.6549 842.999 42.9728 805.513 42.9721 801.352L42.9831 605.084L42.9965 547.784C42.9976 541.668 43.4029 525.434 42.7317 520.297C41.8382 519.803 41.8054 519.825 40.8232 519.673L41.9557 519.419C42.9043 518.105 42.9494 500.54 42.9866 497.424C43.473 456.686 42.9719 415.874 42.9737 375.128L42.9834 125.083L42.9829 71.7751C42.9792 64.4886 42.9303 57.06 42.8191 49.7638C42.7938 48.1037 43.6073 47.5487 44.7808 46.6084C45.1333 69.6491 44.9202 93.1136 44.9212 116.19L44.923 235.567L44.9186 594.661L44.9089 772.042L44.9345 824.383C44.9405 828.731 45.2788 845.116 44.8238 848.767Z"/><path fill="#FEFEFE" fill-opacity="0.21960784" d="M44.9368 45.1024C45.8556 44.2709 45.3102 44.4868 46.5049 44.2655C46.7247 44.0659 46.9239 43.841 47.1643 43.6667C49.1005 42.2633 134.261 42.9911 144.774 42.9939L443.562 43.0118L498.945 43.0099C499.39 43.0096 503.521 42.9794 503.533 42.952C504.754 40.3173 503.422 40.042 507.837 41.0358L507.838 41.326L505.494 42.0133C505.791 42.0266 506.088 42.0362 506.384 42.0533C507.25 42.1033 507.761 42.2734 508.552 42.5892C509.961 43.1525 539.283 43.0151 543.532 43.0173L666.74 43.0118C672.921 43.0113 680.145 43.2217 686.227 42.9627C692.06 42.7143 697.61 40.859 703.927 41.729C708.771 42.3962 713.166 43.9195 717.774 44.8765C729.954 47.4059 740.461 50.3098 751.967 55.1374C754.391 56.1548 756.138 58.0854 758.322 59.0685C762.89 61.1243 766.822 61.6632 770.614 65.2732C771.161 66.592 771.157 66.5612 771.319 67.9776L772.997 69.717C771.504 69.2183 770.487 69.3628 769.738 67.8593C768.298 65.1711 762.722 63.8978 760.124 62.4141C743.378 52.8501 724.425 48.1273 705.417 45.2251C695.109 43.6513 682.647 44.4539 671.96 44.4557L624.181 44.4371L464.655 44.4446L197.89 44.4321L101.695 44.4361C84.7965 44.437 67.8396 44.367 50.9423 44.5156C48.7244 44.5351 47.51 45.0185 45.6458 45.0839L44.9368 45.1024Z"/><path fill="#FEFEFE" fill-opacity="0.27843139" d="M839.086 147.064L840.88 148.872L841.297 148.886L841.732 147.74C845.143 149.336 845.052 160.09 846.483 162.967C849.007 168.041 847.284 164.025 846.739 169.126C844.909 160.505 841.505 154.925 839.086 147.064Z"/><path fill="#FEFEFE" fill-opacity="0.41568628" d="M837.788 144.049L838.423 143.289C840.085 144.181 840.568 147.09 840.88 148.872L839.086 147.064L837.788 144.049Z"/><path fill="#FEFEFE" fill-opacity="0.24313726" d="M891.437 742.673L891.312 740.487C890.513 739.538 891.008 739.899 889.624 739.65C888.886 736.063 891.93 731.978 892.12 727.991C890.698 727.854 891.177 728.059 890.012 727.387L890.208 725.129L890.336 725.41L890.549 723.482C891.663 712.92 891.177 696.771 891.176 685.723L891.174 620.838L891.158 551.473L891.137 530.612C891.144 527.955 891.363 525.329 891.304 522.668C891.255 520.486 889.983 520.696 889.627 519.048C890.534 519.41 890.172 519.387 891.104 519.271C891.858 514.593 890.898 508.163 891 503.264C891.243 482.431 891.301 461.596 891.173 440.762L891.166 242.95L891.193 198.433C891.198 194.402 891.765 174.744 890.321 172.839L889.826 174.175C889.563 171.112 888.975 168.421 890.645 165.523C893.806 160.039 887.098 157.766 890.986 150.99C891.664 154.291 892.288 157.301 892.505 160.675C892.877 166.468 892.472 172.106 894 177.783L894 714.952C891.963 722.564 893.594 735.037 891.437 742.673Z"/><path fill="#FEFEFE" fill-opacity="0.34117648" d="M833.784 846.973C832.6 847.224 831.88 847.51 830.737 847.142C831.073 844.846 840.917 836.324 842.954 834.08C845.21 831.595 847.545 828.769 849.677 826.12C859.982 813.57 868.704 799.8 875.646 785.121C877.865 780.457 879.481 773.551 882.478 769.559L882.996 769.8L883.447 771.442C877.337 794.864 854.218 830.113 834.356 846.706C834.165 846.795 833.974 846.884 833.784 846.973Z"/><path fill="#FEFEFE" fill-opacity="0.23529412" d="M884.333 770.406C884.054 767.341 883.457 763.054 884.976 760.324L886.275 760.729C886.353 759.449 885.372 756.333 885.592 755.428C886.297 752.528 886.605 752.564 886.397 749.221C887.239 747.728 886.693 748.019 887.873 747.519C888.613 748.662 888.606 750.575 888.734 752.02L889.213 752.402L890.106 749.706C890.001 754.112 890.066 754.677 888.29 758.665L888.289 758.448C886.566 762.795 885.415 765.853 884.333 770.406Z"/><path fill="#FEFEFE" fill-opacity="0.34901962" d="M819.471 858.579C817.985 858.224 818.48 858.646 817.733 857.566C818.587 856.239 819.803 855.087 821.477 855.431L821.902 856.641L819.471 858.579Z"/></svg>